<svg width="505.5351318359375px" height="125.6px" xmlns="http://www.w3.org/2000/svg" viewBox="-2.7675659179687386 12.200000000000003 505.5351318359375 125.6" style="background: rgba(0, 0, 0, 0);" preserveAspectRatio="xMidYMid"><defs><filter id="editing-neon" x="-100%" y="-100%" width="300%" height="300%"><feFlood flood-color="#00ff2f" result="flood"></feFlood><feComposite operator="in" in="flood" in2="SourceAlpha" result="color"></feComposite><feFlood flood-color="#00ff2f" result="flood2"></feFlood><feComposite operator="in" in="flood2" in2="SourceAlpha" result="color2"></feComposite><feMorphology operator="dilate" radius="2" in="color" result="dilate"></feMorphology><feGaussianBlur stdDeviation="6" in="color" result="blur1"></feGaussianBlur><feGaussianBlur stdDeviation="2.5" in="color" result="blur2"></feGaussianBlur><feGaussianBlur stdDeviation="1" in="SourceAlpha" result="blur3"></feGaussianBlur><feGaussianBlur stdDeviation="6" in="dilate" result="blur4"></feGaussianBlur><feConvolveMatrix in="color2" result="conv" order="3,3" divisor="1" kernelMatrix="1 1 1  1 1 1  1 1 1"></feConvolveMatrix><feMerge><feMergeNode in="blur1"></feMergeNode><feMergeNode in="blur2"></feMergeNode><feMergeNode in="blur4"></feMergeNode><feMergeNode in="blur3"></feMergeNode><feMergeNode in="blur3"></feMergeNode><feMergeNode in="blur3"></feMergeNode><feMergeNode in="blur3"></feMergeNode><feMergeNode in="conv"></feMergeNode><feMergeNode in="SourceGraphic"></feMergeNode></feMerge></filter></defs><g filter="url(#editing-neon)"><g transform="translate(72.48708465695381, 99.54000282287598)"><path d="M-0.03-46.32L10.54-46.32L10.54-46.32Q10.02-44.65 10.02-43.17L10.02-43.17L10.02-43.17Q10.02-40.66 10.90-35.90L10.90-35.90L10.90-35.90Q14.59-17.35 15.20-14.47L15.20-14.47L15.20-14.47Q16.47-8.54 16.76-7.28L16.76-7.28L16.76-7.28Q17.04-6.02 17.29-4.87L17.29-4.87L17.29-4.87Q22.92-11.56 25.07-23.13L25.07-23.13L25.07-23.13Q25.85-27.37 25.85-31.12L25.85-31.12L25.85-31.12Q25.85-34.88 25.70-36.93L25.70-36.93L25.70-36.93Q25.55-38.99 25.19-40.69L25.19-40.69L25.19-40.69Q24.46-44.08 22.89-46.35L22.89-46.35L33.45-46.35L33.45-46.35Q32.82-44.53 32.79-42.72L32.79-42.72L32.79-42.72Q32.76-40.90 32.67-37.19L32.67-37.19L32.67-37.19Q32.57-33.48 31.73-28.37L31.73-28.37L31.73-28.37Q30.88-23.25 29.61-19.22L29.61-19.22L29.61-19.22Q28.34-15.20 26.79-12.14L26.79-12.14L26.79-12.14Q25.25-9.08 23.70-6.78L23.70-6.78L23.70-6.78Q22.16-4.48 20.77-2.85L20.77-2.85L18.41 0L8.87 0L8.87 0Q9.32-1.15 9.32-2.24L9.32-2.24L9.32-2.24Q9.32-4.03 8.84-7.48L8.84-7.48L8.84-7.48Q3.66-42.05-0.03-46.32L-0.03-46.32ZM39.08-46.32L49.53-46.32L49.53-46.32Q48.41-43.50 48.23-40.67L48.23-40.67L48.23-40.67Q48.04-37.84 47.95-35.81L47.95-35.81L47.95-35.81Q47.86-33.79 47.80-31.61L47.80-31.61L47.80-31.61Q47.71-26.52 47.71-22.34L47.71-22.34L47.71-22.34Q47.71-5.21 48.98-1.33L48.98-1.33L48.98-1.33Q49.19-0.67 49.53 0L49.53 0L39.08 0L39.08 0Q40.02-2.06 40.20-3.72L40.20-3.72L40.20-3.72Q40.38-5.39 40.54-7.69L40.54-7.69L40.54-7.69Q40.90-12.44 40.90-18.65L40.90-18.65L40.90-18.65Q40.90-24.85 40.87-27.14L40.87-27.14L40.87-27.14Q40.84-29.43 40.78-31.61L40.78-31.61L40.78-31.61Q40.57-42.23 39.51-45.11L39.51-45.11L39.08-46.32ZM66.30-38.17L66.30-38.17L66.33-8.02L66.33-8.02Q66.36-6.30 66.72-5.42L66.72-5.42L66.72-5.42Q67.09-4.54 68.24-4.54L68.24-4.54L68.24-4.54Q73.63-4.54 76.62-11.38L76.62-11.38L76.62-11.38Q79.53-18.04 79.53-29.85L79.53-29.85L79.53-29.85Q79.53-36.06 78.08-39.26L78.08-39.26L78.08-39.26Q76.11-43.59 71.23-43.59L71.23-43.59L71.23-43.59Q68.12-43.59 67.40-42.87L67.40-42.87L67.40-42.87Q66.69-42.14 66.50-41.07L66.50-41.07L66.50-41.07Q66.30-39.99 66.30-38.17ZM57.88 0L57.88 0L57.88 0Q58.85-2.30 59.02-3.84L59.02-3.84L59.02-3.84Q59.18-5.39 59.31-7.14L59.31-7.14L59.31-7.14Q59.55-10.72 59.55-16.74L59.55-16.74L59.55-16.74Q59.55-24.04 59.31-30.06L59.31-30.06L58.97-38.39L58.97-38.39Q58.85-41.54 58.43-42.78L58.43-42.78L58.43-42.78Q57.76-44.74 56.25-46.32L56.25-46.32L72.87-46.32L72.87-46.32Q83.22-46.32 86.40-38.17L86.40-38.17L86.40-38.17Q87.52-35.30 87.52-31.21L87.52-31.21L87.52-31.21Q87.52-8.36 72.02-2.09L72.02-2.09L72.02-2.09Q66.78 0.03 59.70 0.03L59.70 0.03L59.70 0.03Q59.25 0.03 58.79 0.03L58.79 0.03L58.79 0.03Q58.34 0.03 57.88 0ZM118.04-11.20L118.04-11.20L118.04-11.20Q118.85-10.08 118.85-7.96L118.85-7.96L118.85-7.96Q118.85-5.84 118.67-4.59L118.67-4.59L118.67-4.59Q118.49-3.33 118.10-2.30L118.10-2.30L118.10-2.30Q117.19 0 115.71 0L115.71 0L91.18 0L91.18 0Q93.51-1.24 94.27-2.39L94.27-2.39L94.27-2.39Q95.69-4.54 95.69-7.84L95.69-7.84L95.69-7.84Q95.66-15.92 95.66-22.46L95.66-22.46L95.66-38.39L95.66-38.39Q95.66-42.90 94.24-44.93L94.24-44.93L94.24-44.93Q93.70-45.65 92.94-46.32L92.94-46.32L115.71-46.32L115.71-46.32Q117.76-45.59 118.52-41.23L118.52-41.23L118.52-41.23Q118.73-40.02 118.73-38.87L118.73-38.87L118.73-38.87Q118.73-36.51 118.04-35.12L118.04-35.12L116.40-38.39L116.40-38.39Q114.77-41.60 111.71-42.69L111.71-42.69L111.71-42.69Q110.01-43.29 107.89-43.29L107.89-43.29L107.89-43.29Q105.78-43.29 104.87-43.15L104.87-43.15L104.87-43.15Q103.96-43.02 103.47-42.50L103.47-42.50L103.47-42.50Q102.69-41.63 102.69-39.16L102.69-39.16L102.69-39.16Q102.69-36.69 102.81-35.74L102.81-35.74L102.81-35.74Q102.93-34.78 103.38-34.18L103.38-34.18L103.38-34.18Q104.32-33.00 107.35-33.00L107.35-33.00L116.86-33.00L116.86-33.00Q116.16-31.24 115.43-30.52L115.43-30.52L115.43-30.52Q113.98-29.06 111.50-29.06L111.50-29.06L111.50-29.06Q110.53-29.06 109.65-29.27L109.65-29.27L109.65-29.27Q108.02-29.67 106.77-29.67L106.77-29.67L106.77-29.67Q105.53-29.67 104.73-29.44L104.73-29.44L104.73-29.44Q103.93-29.21 103.47-28.73L103.47-28.73L103.47-28.73Q102.69-27.88 102.69-25.67L102.69-25.67L102.69-11.23L102.69-11.23Q102.69-5.54 103.32-4.48L103.32-4.48L103.32-4.48Q103.96-3.42 104.87-3.22L104.87-3.22L104.87-3.22Q105.78-3.03 107.89-3.03L107.89-3.03L107.89-3.03Q110.01-3.03 111.74-3.63L111.74-3.63L111.74-3.63Q113.46-4.24 114.63-5.33L114.63-5.33L114.63-5.33Q115.80-6.42 116.55-7.92L116.55-7.92L116.55-7.92Q117.31-9.42 118.04-11.20ZM140.32-2.42L140.32-2.42L140.32-2.42Q146.13-2.42 147.83-16.59L147.83-16.59L147.83-16.59Q148.40-21.37 148.40-27.85L148.40-27.85L148.40-27.85Q148.40-43.90 140.26-43.90L140.26-43.90L140.26-43.90Q132.11-43.90 132.11-27.85L132.11-27.85L132.11-27.85Q132.11-8.93 136.99-3.97L136.99-3.97L136.99-3.97Q138.50-2.42 140.32-2.42ZM140.26 0.61L140.26 0.61L140.26 0.61Q132.20 0.61 128.12-6.96L128.12-6.96L128.12-6.96Q124.18-14.26 124.18-27.85L124.18-27.85L124.18-27.85Q124.18-41.99 132.87-45.65L132.87-45.65L132.87-45.65Q135.93-46.92 140.26-46.92L140.26-46.92L140.26-46.92Q152.67-46.92 155.42-35.90L155.42-35.90L155.42-35.90Q156.33-32.36 156.33-26.79L156.33-26.79L156.33-26.79Q156.33-21.22 155.36-15.94L155.36-15.94L155.36-15.94Q154.39-10.66 152.40-6.96L152.40-6.96L152.40-6.96Q148.31 0.61 140.26 0.61ZM204.10-14.80L204.10-14.80L204.07-18.74L204.07-18.74Q204.07-22.16 203.41-23.30L203.41-23.30L203.41-23.30Q202.74-24.43 202.01-24.96L202.01-24.96L202.01-24.96Q201.29-25.49 200.23-26.04L200.23-26.04L213.52-26.04L213.52-26.04Q211.61-24.28 211.10-21.55L211.10-21.55L211.10-21.55Q210.61-18.95 210.61-13.50L210.61-13.50L210.61-13.50Q210.61-2.91 211.88 0.61L211.88 0.61L211.88 0.61Q211.46 0.64 211.04 0.64L211.04 0.64L210.22 0.64L210.22 0.64Q196.90 0.64 190.03-7.93L190.03-7.93L190.03-7.93Q183.46-16.14 183.46-31.21L183.46-31.21L183.46-31.21Q183.46-38.66 187.85-42.63L187.85-42.63L187.85-42.63Q191.90-46.32 198.71-46.32L198.71-46.32L204.04-46.26L204.04-46.26Q208.25-46.26 209.92-47.29L209.92-47.29L209.92-47.29Q210.61-47.74 211.10-48.44L211.10-48.44L211.10-48.44Q211.85-46.98 211.85-44.44L211.85-44.44L211.85-44.44Q211.85-41.90 211.70-40.34L211.70-40.34L211.70-40.34Q211.55-38.78 211.25-37.30L211.25-37.30L211.25-37.30Q210.61-34.15 209.28-32.39L209.28-32.39L209.28-32.39Q208.13-38.45 206.40-40.75L206.40-40.75L206.40-40.75Q204.47-43.29 200.35-43.29L200.35-43.29L200.35-43.29Q195.14-43.29 192.99-39.11L192.99-39.11L192.99-39.11Q191.45-36.06 191.45-29.85L191.45-29.85L191.45-29.85Q191.45-21.34 194.08-13.53L194.08-13.53L194.08-13.53Q195.93-8.05 198.68-5.75L198.68-5.75L198.68-5.75Q200.11-4.54 201.64-4.54L201.64-4.54L201.64-4.54Q203.17-4.54 203.59-5.42L203.59-5.42L203.59-5.42Q204.01-6.30 204.04-8.42L204.04-8.42L204.04-8.42Q204.10-12.59 204.10-14.80ZM250.24 0L239.67 0L239.67 0Q240.07-1.91 240.07-3.04L240.07-3.04L240.07-3.04Q240.07-4.18 240.02-4.75L240.02-4.75L240.02-4.75Q239.98-5.33 239.90-5.98L239.90-5.98L239.90-5.98Q239.83-6.63 239.72-7.43L239.72-7.43L239.72-7.43Q239.61-8.23 239.52-9.29L239.52-9.29L239.52-9.29Q238.83-16.53 234.59-21.19L234.59-21.19L234.59-21.19Q232.71-23.25 230.53-24.32L230.53-24.32L230.53-24.32Q228.35-25.40 226.94-25.40L226.94-25.40L226.94-25.40Q225.54-25.40 224.78-25.22L224.78-25.22L224.78-25.22Q223.08-20.13 223.08-14.59L223.08-14.59L223.08-14.59Q223.08-9.69 223.60-7.27L223.60-7.27L223.60-7.27Q224.42-3.63 226.11 0.03L226.11 0.03L217.06 0.03L217.06 0.03Q217.79-1.79 217.79-7.61L217.79-7.61L217.79-7.61Q217.79-13.44 218.67-18.51L218.67-18.51L218.67-18.51Q219.54-23.58 220.95-27.55L220.95-27.55L220.95-27.55Q222.36-31.51 224.10-34.50L224.10-34.50L224.10-34.50Q225.84-37.48 227.58-39.70L227.58-39.70L227.58-39.70Q229.32-41.93 230.87-43.52L230.87-43.52L230.87-43.52Q232.41-45.11 233.44-46.32L233.44-46.32L242.97-46.32L242.97-46.32Q241.67-44.83 241.67-42.17L241.67-42.17L241.67-42.17Q241.67-40.96 242.07-38.21L242.07-38.21L242.82-32.70L242.82-32.70Q246.97-4.12 250.24 0L250.24 0ZM226.02-28.43L226.02-28.43L226.02-28.43Q227.20-28.88 228.50-28.88L228.50-28.88L228.50-28.88Q229.81-28.88 230.85-28.70L230.85-28.70L230.85-28.70Q231.89-28.52 232.92-28.09L232.92-28.09L232.92-28.09Q235.13-27.25 236.62-25.40L236.62-25.40L236.62-25.40Q235.13-33.18 234.80-34.91L234.80-34.91L233.74-40.20L232.02-38.14L232.02-38.14Q228.38-33.79 226.02-28.43ZM266.50-18.59L260.84-35.81L260.84-35.81Q260.71-31.39 260.71-26.67L260.71-26.67L260.71-26.67Q260.71-20.22 260.93-12.78L260.93-12.78L260.93-12.78Q261.14-5.33 261.24-4.31L261.24-4.31L261.24-4.31Q261.35-3.30 261.53-2.54L261.53-2.54L261.53-2.54Q261.87-1.15 262.62 0L262.62 0L254.18 0L254.18 0Q255.33-1.63 255.55-3.51L255.55-3.51L255.55-3.51Q255.78-5.39 255.90-7.14L255.90-7.14L255.90-7.14Q256.14-10.72 256.14-16.74L256.14-16.74L256.14-16.74Q256.14-24.04 255.90-30.06L255.90-30.06L255.57-38.39L255.57-38.39Q255.39-42.99 254.08-44.93L254.08-44.93L254.08-44.93Q253.60-45.65 252.84-46.32L252.84-46.32L264.68-46.32L264.68-46.32Q265.86-41.14 267.62-35.33L267.62-35.33L273.13-17.74L281.57-46.32L293.38-46.32L293.38-46.32Q291.90-45.02 291.44-43.65L291.44-43.65L291.44-43.65Q290.78-41.57 290.69-38.81L290.69-38.81L290.47-33.45L290.47-33.45Q290.08-24.04 290.08-16.74L290.08-16.74L290.08-16.74Q290.08-4.51 291.20-1.21L291.20-1.21L291.20-1.21Q291.41-0.61 291.75 0L291.75 0L282.21 0L282.21 0Q283.03-1.60 283.13-3.47L283.13-3.47L283.13-3.47Q283.24-5.33 283.33-8.60L283.33-8.60L283.33-8.60Q283.69-19.34 283.69-24.25L283.69-24.25L283.69-24.25Q283.69-32.33 283.54-36.27L283.54-36.27L272.40 0L266.50-18.59ZM322.84-11.20L322.84-11.20L322.84-11.20Q323.65-10.08 323.65-7.96L323.65-7.96L323.65-7.96Q323.65-5.84 323.47-4.59L323.47-4.59L323.47-4.59Q323.29-3.33 322.90-2.30L322.90-2.30L322.90-2.30Q321.99 0 320.50 0L320.50 0L295.98 0L295.98 0Q298.31-1.24 299.07-2.39L299.07-2.39L299.07-2.39Q300.49-4.54 300.49-7.84L300.49-7.84L300.49-7.84Q300.46-15.92 300.46-22.46L300.46-22.46L300.46-38.39L300.46-38.39Q300.46-42.90 299.04-44.93L299.04-44.93L299.04-44.93Q298.50-45.65 297.74-46.32L297.74-46.32L320.50-46.32L320.50-46.32Q322.56-45.59 323.32-41.23L323.32-41.23L323.32-41.23Q323.53-40.02 323.53-38.87L323.53-38.87L323.53-38.87Q323.53-36.51 322.84-35.12L322.84-35.12L321.20-38.39L321.20-38.39Q319.57-41.60 316.51-42.69L316.51-42.69L316.51-42.69Q314.81-43.29 312.69-43.29L312.69-43.29L312.69-43.29Q310.58-43.29 309.67-43.15L309.67-43.15L309.67-43.15Q308.76-43.02 308.27-42.50L308.27-42.50L308.27-42.50Q307.49-41.63 307.49-39.16L307.49-39.16L307.49-39.16Q307.49-36.69 307.61-35.74L307.61-35.74L307.61-35.74Q307.73-34.78 308.18-34.18L308.18-34.18L308.18-34.18Q309.12-33.00 312.15-33.00L312.15-33.00L321.66-33.00L321.66-33.00Q320.96-31.24 320.23-30.52L320.23-30.52L320.23-30.52Q318.78-29.06 316.30-29.06L316.30-29.06L316.30-29.06Q315.33-29.06 314.45-29.27L314.45-29.27L314.45-29.27Q312.82-29.67 311.57-29.67L311.57-29.67L311.57-29.67Q310.33-29.67 309.53-29.44L309.53-29.44L309.53-29.44Q308.73-29.21 308.27-28.73L308.27-28.73L308.27-28.73Q307.49-27.88 307.49-25.67L307.49-25.67L307.49-11.23L307.49-11.23Q307.49-5.54 308.12-4.48L308.12-4.48L308.12-4.48Q308.76-3.42 309.67-3.22L309.67-3.22L309.67-3.22Q310.58-3.03 312.69-3.03L312.69-3.03L312.69-3.03Q314.81-3.03 316.54-3.63L316.54-3.63L316.54-3.63Q318.26-4.24 319.43-5.33L319.43-5.33L319.43-5.33Q320.60-6.42 321.35-7.92L321.35-7.92L321.35-7.92Q322.11-9.42 322.84-11.20ZM335.52-16.04L335.52-16.04L335.52-16.04Q335.13-12.90 335.13-11.03L335.13-11.03L335.13-11.03Q335.13-9.17 335.58-7.60L335.58-7.60L335.58-7.60Q336.04-6.02 336.88-4.87L336.88-4.87L336.88-4.87Q338.70-2.42 341.48-2.42L341.48-2.42L341.48-2.42Q346.81-2.42 346.81-8.29L346.81-8.29L346.81-8.29Q346.81-13.02 341.33-18.32L341.33-18.32L338.18-21.37L338.18-21.37Q334.04-25.37 332.52-27.79L332.52-27.79L332.52-27.79Q329.53-32.57 329.53-37.30L329.53-37.30L329.53-37.30Q329.53-41.14 332.01-43.75L332.01-43.75L332.01-43.75Q335.01-46.92 340.64-46.92L340.64-46.92L340.64-46.92Q342.85-46.92 343.97-46.71L343.97-46.71L343.97-46.71Q346.06-46.32 346.75-46.32L346.75-46.32L346.75-46.32Q348.51-46.32 349.48-47.41L349.48-47.41L349.48-47.41Q349.84-47.80 350.26-48.44L350.26-48.44L350.26-48.44Q352.47-47.20 352.47-39.33L352.47-39.33L352.47-39.33Q352.47-34.30 351.47-31.91L351.47-31.91L351.47-31.91Q351.14-31.09 350.72-30.88L350.72-30.88L350.72-30.88Q350.23-35.45 347.75-39.05L347.75-39.05L347.75-39.05Q344.84-43.29 341.03-43.29L341.03-43.29L341.03-43.29Q337.76-43.29 337.00-40.29L337.00-40.29L337.00-40.29Q336.79-39.45 336.79-38.19L336.79-38.19L336.79-38.19Q336.79-36.93 337.55-35.33L337.55-35.33L337.55-35.33Q338.31-33.72 339.53-32.14L339.53-32.14L339.53-32.14Q340.76-30.55 342.36-28.94L342.36-28.94L342.36-28.94Q347.21-23.98 348.80-22.22L348.80-22.22L348.80-22.22Q350.38-20.46 351.63-18.59L351.63-18.59L351.63-18.59Q354.35-14.38 354.35-10.44L354.35-10.44L354.35-10.44Q354.35-5.69 350.66-2.57L350.66-2.57L350.66-2.57Q346.84 0.61 340.85 0.61L340.85 0.61L340.85 0.61Q335.88 0.61 332.31-1.88L332.31-1.88L332.31-1.88Q328.38-4.60 328.38-9.08L328.38-9.08L328.38-9.08Q329.56-13.29 333.52-15.26L333.52-15.26L333.52-15.26Q334.58-15.80 335.52-16.04Z" fill="none" stroke="#e9ffd4" stroke-width="2.6"></path></g></g><style>text {
  font-size: 64px;
  font-family: Arial Black;
  dominant-baseline: central;
  text-anchor: middle;
}</style></svg>